<svg version="1.2" baseProfile="tiny-ps" xmlns="http://www.w3.org/2000/svg" viewBox="0 0 400 400" width="400" height="400">
	<title>New Project</title>
	<style>
		tspan { white-space:pre }
	</style>
	<path fill="#000000" aria-label="Viva"  d="M113.41 345.9C114.07 345.11 114.6 344.57 114.87 343.91C116.07 341.25 116.33 338.32 115.67 335.53C114.74 331.41 115.67 327.55 116.6 323.69C119.39 312.65 128.04 289.64 133.36 278.61C132.96 276.88 134.95 276.61 135.62 275.41C143.47 260.38 151.84 245.89 161.15 231.79L162.75 229.13C162.62 229.13 162.48 229 162.35 229L157.43 233.12C157.56 231.92 158.09 230.99 158.63 230.33L164.88 222.08C165.01 222.21 165.14 222.21 165.41 222.35L165.01 224.34C168.07 221.02 170.73 217.43 173.39 213.83C181.24 203.46 189.22 193.22 196.93 182.85C200.92 177.53 205.97 173 209.03 167.15C209.43 166.49 210.1 165.95 210.63 165.42C213.96 161.96 217.55 158.64 220.87 155.05C241.62 132.44 262.9 110.36 286.04 90.01L287.24 88.42L286.97 88.02C286.04 88.55 285.11 88.95 284.18 89.35C284.58 88.15 285.24 87.22 286.04 86.55C291.23 82.43 296.15 78.31 301.47 74.45C305.06 71.79 308.65 69.13 312.91 67.67C314.1 67.27 315.43 67.14 317.03 66.74C317.3 68.33 317.43 69.4 317.43 69.8L313.17 73.65C313.71 74.98 313.97 75.51 314.24 76.05C313.84 76.58 313.44 76.98 312.91 77.51C313.71 78.17 314.24 78.71 315.04 79.24C317.3 77.64 319.29 75.91 321.42 74.58C325.41 72.19 327.27 68.86 326.21 63.94C326.07 63.81 325.81 63.41 325.41 63.15C324.35 62.48 323.28 61.95 322.22 61.42C321.95 61.02 321.82 60.62 321.69 60.35C319.29 55.7 317.16 54.63 312.11 56.36C309.18 57.43 306.39 59.02 303.6 60.49C303.33 60.62 303.2 61.28 302.93 61.68C306.79 59.02 311.18 59.29 315.3 58.49C316.37 58.36 317.56 58.62 318.49 59.02C319.69 59.55 320.22 60.75 320.09 62.35L318.23 61.95C313.84 60.35 309.58 60.35 305.46 63.01C302.53 64.74 299.61 66.6 296.68 68.6C290.83 72.59 285.77 77.51 280.59 82.43L259.44 101.98C256.65 104.64 253.99 107.44 251.46 110.23C249.6 109.56 249.6 109.56 248.8 110.23C246.81 112.22 244.94 114.48 242.82 116.35C237.1 121.4 232.18 126.99 228.05 133.37C225.79 137.09 223.13 140.55 220.47 144.28L219.14 141.62C220.21 140.42 221.14 139.35 222.07 138.16C221.94 138.03 221.8 137.89 221.67 137.89C218.74 140.82 215.95 143.88 213.02 146.8C211.16 148.66 209.03 150.26 207.31 152.26C200.12 160.5 192.94 168.88 185.89 177.26C182.43 181.25 179.38 185.51 176.32 189.76C173.92 192.82 171.93 196.01 169.67 199.2C167.94 201.47 165.94 203.59 164.35 205.85C154.5 219.16 145.33 232.85 137.35 247.35C136.55 248.68 135.75 250.14 134.95 251.61C134.16 252.8 135.22 254.67 133.49 255.6C133.49 259.32 131.5 262.38 130.03 265.57C127.77 270.23 125.11 274.62 123.25 279.54C122.58 281.53 121.12 283.13 120.32 284.99C116.73 292.84 113.41 300.82 109.68 309.46C105.03 292.84 100.51 276.88 96.12 260.78L94.25 262.25C93.99 261.45 93.59 260.92 93.46 260.25C92.79 256.66 92.26 253.07 91.46 249.61C89.73 242.43 87.87 235.25 86.01 228.2C85.34 225.54 84.68 222.88 83.62 220.35C81.89 215.96 78.03 212.24 79.09 206.92C79.09 206.65 78.96 206.39 78.96 206.12C77.63 201.47 76.3 196.81 74.84 192.16C72.84 185.64 70.58 179.12 68.59 172.6C67.79 170.21 66.19 168.62 64.33 167.28C63.27 166.62 61.94 166.09 60.61 165.42C58.74 169.15 57.68 173 59.14 177.13L67.12 201.2C67.39 201.87 67.52 202.53 67.92 202.93C69.52 204.66 69.78 206.92 70.18 209.18C70.58 211.18 70.98 213.3 71.64 215.3C74.57 224.74 76.97 234.32 80.82 243.36C82.15 246.55 82.42 250.14 83.48 253.47C86.67 264.11 89.87 274.88 93.19 285.79C93.86 282.46 91.2 279.54 92.26 275.41L94.92 285.39C96.52 291.11 97.58 296.83 99.71 302.41C101.57 307.47 103.03 312.52 104.36 317.84C104.76 319.57 104.9 321.3 104.23 323.96C103.43 321.96 102.9 320.63 102.23 318.77C101.7 324.89 103.83 329.94 104.36 335.13C104.63 333.27 104.63 331.41 104.63 329.55C104.63 327.02 104.63 327.02 106.09 324.49C106.09 325.69 105.83 326.88 105.69 328.08C105.56 328.75 105.16 329.81 105.43 330.21C106.49 331.67 105.69 333.4 106.62 335C107.56 336.46 106.89 338.72 107.02 340.72C107.16 341.65 107.16 342.98 108.62 343.38C109.02 343.51 109.15 344.44 109.42 344.97C109.68 345.24 109.95 345.37 110.35 345.64C110.88 344.97 111.28 344.31 111.68 343.78ZM217.01 151.06L216.62 150.66L217.68 148.8L218.08 149.2ZM138.28 267.43L137.35 267.04C137.75 265.7 138.01 264.24 138.68 262.91C140.67 258.79 142.93 254.67 145.46 250.81C148.39 246.69 150.78 242.03 153.44 237.64C153.97 236.84 154.64 236.18 155.44 235.65C149.85 246.29 142.8 256.26 138.28 267.43ZM90.53 272.75C89.73 269.56 88.94 266.24 88 263.05C89.87 266.1 91.2 269.16 90.53 272.75ZM215.55 218.36C216.88 217.29 218.34 216.1 219.28 214.37C219.81 213.04 219.14 211.84 218.88 210.64C217.41 209.98 216.48 210.51 215.68 211.97C215.15 209.84 214.22 208.65 212.23 208.38C210.1 210.11 209.43 212.64 209.3 215.16C209.17 215.7 209.7 216.5 210.23 216.63C210.5 216.89 211.16 216.5 211.83 216.5C213.02 218.49 214.22 219.42 215.55 218.36ZM203.05 278.47C203.31 278.34 203.58 278.07 203.98 277.81C205.44 276.61 207.17 275.55 208.77 274.22C209.43 273.55 209.97 272.49 210.9 271.42C209.03 271.56 207.31 271.56 205.84 271.16C205.98 269.83 208.1 269.43 207.17 268.5L203.18 271.96C203.18 271.96 203.58 271.96 203.98 272.22C203.18 273.69 201.99 274.35 200.12 274.48C199.86 274.08 199.59 273.69 199.59 273.29C198.66 270.09 198.26 266.9 198.66 263.71C198.93 261.18 198.93 258.66 199.99 256.26C200.12 255.86 199.99 255.2 199.99 254.67C199.99 253.2 199.72 251.61 200.26 250.41C201.72 246.69 203.58 243.36 205.44 239.5L205.98 240.97C207.04 239.37 207.84 237.64 208.77 236.18C209.3 235.25 209.83 234.58 210.5 233.92C212.09 232.45 212.23 231.79 211.43 229.4C210.63 229 209.97 229.4 209.57 230.19C209.3 231.26 208.1 230.19 207.57 230.99C207.17 231.52 206.64 232.06 206.11 232.59L204.65 231.66C206.37 230.19 207.7 229.26 209.03 228.07C208.37 227.53 206.37 227 205.84 226.47C204.11 228.07 202.78 230.06 201.85 232.06C200.92 233.78 200.26 235.51 199.33 237.24C194.94 245.22 190.95 253.34 190.15 262.51C189.88 266.5 189.48 270.49 190.95 274.35C192.81 279.67 198.13 281.27 203.05 278.47ZM241.22 273.55C246.14 270.63 250.4 266.9 253.72 262.25C255.98 259.06 258.38 256 261.17 253.47C261.97 252.67 262.77 251.87 263.43 250.94C269.81 242.96 276.2 234.98 282.58 226.87C283.51 225.67 284.18 224.21 284.71 222.75C285.24 221.42 284.31 219.29 282.98 218.36L278.33 214.5C277.93 214.63 277.66 214.77 277.53 214.9L259.31 238.31C258.78 238.97 258.38 239.5 257.85 240.04C256.25 241.9 254.52 243.76 252.66 245.49C248.4 250.01 244.15 254.4 239.76 258.66C238.16 260.25 236.17 261.32 234.3 262.78C233.91 262.11 233.77 261.98 233.77 261.71L233.77 260.65C234.97 253.74 237.1 247.09 240.16 240.7C240.42 240.17 240.69 239.5 241.09 239.24C243.48 237.91 243.61 235.65 243.88 233.39C244.01 231.13 244.94 228.86 243.08 227C242.02 227.4 241.09 227.8 239.89 228.2C239.09 226.34 238.56 224.87 237.63 222.88C236.56 224.21 235.24 225.27 234.7 226.6C230.71 234.32 227.52 242.43 224.99 250.81C223.13 257.06 223.13 263.31 224.46 269.69C224.73 270.76 225.53 271.82 226.46 272.62C231.11 276.21 236.17 276.61 241.22 273.55ZM226.19 269.69C225.79 269.03 225.53 268.23 225.13 267.43C225.39 267.3 225.66 267.3 226.06 267.17C226.19 267.97 226.46 268.76 226.59 269.56C226.32 269.69 226.19 269.69 226.19 269.69ZM303.6 246.95C306.26 245.09 308.78 242.96 311.58 241.23C316.5 237.91 321.69 234.58 326.74 231.39C328.2 230.46 329.93 229.93 331.66 229.13C332.06 229.93 332.19 230.33 332.46 230.73C332.86 231.13 333.39 231.39 333.79 231.79C334.45 231.39 335.12 231.13 335.65 230.86C337.38 233.39 337.64 233.52 340.57 232.19C342.17 228.6 341.37 225.67 338.71 223.01C337.64 222.88 336.45 222.61 335.25 222.48C335.38 221.55 335.65 220.88 335.78 220.22C336.58 220.49 337.11 220.75 337.64 220.88C335.92 218.89 334.05 217.03 331.26 217.82C329.53 218.22 327.94 219.16 326.34 219.95C324.74 220.75 323.41 221.81 321.82 222.21C318.09 223.14 314.5 224.61 311.31 226.74C302.4 232.85 294.55 240.17 287.5 248.28C284.18 252.14 281.25 256.26 278.33 260.52C275.93 264.24 274.47 268.5 274.34 273.15C274.2 275.41 275 277.01 277 277.81C280.99 279.4 285.11 280.07 289.23 277.94C292.56 276.21 295.88 274.62 299.07 272.62C305.06 268.9 311.05 265.04 316.9 259.85C315.03 260.52 313.84 260.92 312.64 261.45C312.11 262.25 311.44 262.78 310.38 262.38C309.72 262.38 308.92 262.51 308.38 262.65C309.45 260.92 309.72 260.78 311.05 261.18C311.44 261.05 311.84 261.05 312.24 261.05L323.68 252.94C323.01 254.4 322.75 255.2 322.48 255.86L316.23 268.1C315.83 268.9 315.17 269.69 315.3 270.36C315.97 273.02 314.5 275.01 313.84 277.41C314.5 277.94 315.03 278.47 315.57 279C316.37 278.61 316.9 278.34 317.3 278.07L319.42 280.47C320.62 278.07 321.55 276.08 322.48 274.08C323.28 272.49 323.81 270.76 325.54 269.96C325.41 266.64 327.8 264.51 329.67 262.25C328.73 265.04 327.27 267.57 325.54 269.96C324.74 271.56 324.08 273.15 323.41 274.75C323.01 275.95 322.08 277.28 323.28 278.74C323.81 277.81 324.35 277.01 324.74 276.21L335.92 253.74C336.98 251.74 338.04 249.75 338.84 247.62C340.04 244.29 341.24 240.97 338.84 237.64C336.85 236.31 335.52 238.17 333.79 238.57L331.79 234.05C330.86 234.58 329.93 234.85 329.13 235.38L322.62 240.57C313.84 247.09 305.19 253.6 296.55 260.12C294.15 261.98 291.63 263.44 288.44 265.17C289.76 262.91 290.43 261.18 291.49 259.85C295.35 255.33 298.68 250.41 303.6 246.95ZM307.99 262.91L307.19 263.84C307.19 263.58 307.06 263.44 306.92 263.31ZM292.16 268.23C291.49 269.3 291.23 269.83 290.96 270.36C290.43 270.23 289.9 269.96 289.1 269.69ZM284.18 272.36C284.98 272.22 285.77 272.09 286.57 271.82C286.97 272.89 286.31 273.15 284.18 272.36Z" />
</svg>