<svg version="1.2" baseProfile="tiny-ps" xmlns="http://www.w3.org/2000/svg" viewBox="0 0 400 400" width="400" height="400">
	<title>New Project</title>
	<style>
		tspan { white-space:pre }
	</style>
	<path fill="#ffffff" aria-label="Viva"  d="M114.54 345.9C115.21 345.11 115.74 344.57 116.01 343.91C117.2 341.25 117.47 338.32 116.8 335.53C115.87 331.41 116.8 327.55 117.74 323.69C120.53 312.65 129.17 289.64 134.49 278.61C134.09 276.88 136.09 276.61 136.75 275.41C144.6 260.38 152.98 245.89 162.29 231.79L163.89 229.13C163.75 229.13 163.62 229 163.49 229L158.57 233.12C158.7 231.92 159.23 230.99 159.76 230.33L166.01 222.08C166.15 222.21 166.28 222.21 166.55 222.35L166.15 224.34C169.21 221.02 171.87 217.43 174.53 213.83C182.37 203.46 190.35 193.22 198.07 182.85C202.06 177.53 207.11 173 210.17 167.15C210.57 166.49 211.23 165.95 211.77 165.42C215.09 161.96 218.68 158.64 222.01 155.05C242.76 132.44 264.04 110.36 287.18 90.01L288.37 88.42L288.11 88.02C287.18 88.55 286.25 88.95 285.32 89.35C285.71 88.15 286.38 87.22 287.18 86.55C292.36 82.43 297.29 78.31 302.61 74.45C306.2 71.79 309.79 69.13 314.04 67.67C315.24 67.27 316.57 67.14 318.17 66.74C318.43 68.33 318.57 69.4 318.57 69.8L314.31 73.65C314.84 74.98 315.11 75.51 315.37 76.05C314.97 76.58 314.58 76.98 314.04 77.51C314.84 78.17 315.37 78.71 316.17 79.24C318.43 77.64 320.43 75.91 322.56 74.58C326.55 72.19 328.41 68.86 327.34 63.94C327.21 63.81 326.94 63.41 326.55 63.15C325.48 62.48 324.42 61.95 323.35 61.42C323.09 61.02 322.95 60.62 322.82 60.35C320.43 55.7 318.3 54.63 313.25 56.36C310.32 57.43 307.53 59.02 304.73 60.49C304.47 60.62 304.33 61.28 304.07 61.68C307.93 59.02 312.31 59.29 316.44 58.49C317.5 58.36 318.7 58.62 319.63 59.02C320.83 59.55 321.36 60.75 321.23 62.35L319.36 61.95C314.97 60.35 310.72 60.35 306.6 63.01C303.67 64.74 300.74 66.6 297.82 68.6C291.97 72.59 286.91 77.51 281.72 82.43L260.58 101.98C257.78 104.64 255.12 107.44 252.6 110.23C250.74 109.56 250.74 109.56 249.94 110.23C247.94 112.22 246.08 114.48 243.95 116.35C238.23 121.4 233.31 126.99 229.19 133.37C226.93 137.09 224.27 140.55 221.61 144.28L220.28 141.62C221.34 140.42 222.27 139.35 223.2 138.16C223.07 138.03 222.94 137.89 222.81 137.89C219.88 140.82 217.09 143.88 214.16 146.8C212.3 148.66 210.17 150.26 208.44 152.26C201.26 160.5 194.08 168.88 187.03 177.26C183.57 181.25 180.51 185.51 177.45 189.76C175.06 192.82 173.06 196.01 170.8 199.2C169.07 201.47 167.08 203.59 165.48 205.85C155.64 219.16 146.46 232.85 138.48 247.35C137.69 248.68 136.89 250.14 136.09 251.61C135.29 252.8 136.36 254.67 134.63 255.6C134.63 259.32 132.63 262.38 131.17 265.57C128.91 270.23 126.25 274.62 124.39 279.54C123.72 281.53 122.26 283.13 121.46 284.99C117.87 292.84 114.54 300.82 110.82 309.46C106.16 292.84 101.64 276.88 97.25 260.78L95.39 262.25C95.13 261.45 94.73 260.92 94.59 260.25C93.93 256.66 93.4 253.07 92.6 249.61C90.87 242.43 89.01 235.25 87.15 228.2C86.48 225.54 85.82 222.88 84.75 220.35C83.02 215.96 79.17 212.24 80.23 206.92C80.23 206.65 80.1 206.39 80.1 206.12C78.77 201.47 77.44 196.81 75.97 192.16C73.98 185.64 71.72 179.12 69.72 172.6C68.92 170.21 67.33 168.62 65.47 167.28C64.4 166.62 63.07 166.09 61.74 165.42C59.88 169.15 58.82 173 60.28 177.13L68.26 201.2C68.53 201.87 68.66 202.53 69.06 202.93C70.65 204.66 70.92 206.92 71.32 209.18C71.72 211.18 72.12 213.3 72.78 215.3C75.71 224.74 78.1 234.32 81.96 243.36C83.29 246.55 83.55 250.14 84.62 253.47C87.81 264.11 91 274.88 94.33 285.79C94.99 282.46 92.33 279.54 93.4 275.41L96.06 285.39C97.65 291.11 98.72 296.83 100.84 302.41C102.71 307.47 104.17 312.52 105.5 317.84C105.9 319.57 106.03 321.3 105.37 323.96C104.57 321.96 104.04 320.63 103.37 318.77C102.84 324.89 104.97 329.94 105.5 335.13C105.77 333.27 105.77 331.41 105.77 329.55C105.77 327.02 105.77 327.02 107.23 324.49C107.23 325.69 106.96 326.88 106.83 328.08C106.7 328.75 106.3 329.81 106.56 330.21C107.63 331.67 106.83 333.4 107.76 335C108.69 336.46 108.03 338.72 108.16 340.72C108.29 341.65 108.29 342.98 109.76 343.38C110.15 343.51 110.29 344.44 110.55 344.97C110.82 345.24 111.09 345.37 111.48 345.64C112.02 344.97 112.42 344.31 112.81 343.78ZM218.15 151.06L217.75 150.66L218.82 148.8L219.21 149.2ZM139.41 267.43L138.48 267.04C138.88 265.7 139.15 264.24 139.81 262.91C141.81 258.79 144.07 254.67 146.6 250.81C149.52 246.69 151.92 242.03 154.58 237.64C155.11 236.84 155.77 236.18 156.57 235.65C150.99 246.29 143.94 256.26 139.41 267.43ZM91.67 272.75C90.87 269.56 90.07 266.24 89.14 263.05C91 266.1 92.33 269.16 91.67 272.75ZM216.69 218.36C218.02 217.29 219.48 216.1 220.41 214.37C220.94 213.04 220.28 211.84 220.01 210.64C218.55 209.98 217.62 210.51 216.82 211.97C216.29 209.84 215.36 208.65 213.36 208.38C211.23 210.11 210.57 212.64 210.44 215.16C210.3 215.7 210.84 216.5 211.37 216.63C211.63 216.89 212.3 216.5 212.96 216.5C214.16 218.49 215.36 219.42 216.69 218.36ZM204.19 278.47C204.45 278.34 204.72 278.07 205.12 277.81C206.58 276.61 208.31 275.55 209.9 274.22C210.57 273.55 211.1 272.49 212.03 271.42C210.17 271.56 208.44 271.56 206.98 271.16C207.11 269.83 209.24 269.43 208.31 268.5L204.32 271.96C204.32 271.96 204.72 271.96 205.12 272.22C204.32 273.69 203.12 274.35 201.26 274.48C200.99 274.08 200.73 273.69 200.73 273.29C199.8 270.09 199.4 266.9 199.8 263.71C200.06 261.18 200.06 258.66 201.13 256.26C201.26 255.86 201.13 255.2 201.13 254.67C201.13 253.2 200.86 251.61 201.39 250.41C202.86 246.69 204.72 243.36 206.58 239.5L207.11 240.97C208.18 239.37 208.97 237.64 209.9 236.18C210.44 235.25 210.97 234.58 211.63 233.92C213.23 232.45 213.36 231.79 212.56 229.4C211.77 229 211.1 229.4 210.7 230.19C210.44 231.26 209.24 230.19 208.71 230.99C208.31 231.52 207.78 232.06 207.24 232.59L205.78 231.66C207.51 230.19 208.84 229.26 210.17 228.07C209.51 227.53 207.51 227 206.98 226.47C205.25 228.07 203.92 230.06 202.99 232.06C202.06 233.78 201.39 235.51 200.46 237.24C196.07 245.22 192.08 253.34 191.28 262.51C191.02 266.5 190.62 270.49 192.08 274.35C193.94 279.67 199.26 281.27 204.19 278.47ZM242.36 273.55C247.28 270.63 251.53 266.9 254.86 262.25C257.12 259.06 259.51 256 262.31 253.47C263.1 252.67 263.9 251.87 264.57 250.94C270.95 242.96 277.34 234.98 283.72 226.87C284.65 225.67 285.32 224.21 285.85 222.75C286.38 221.42 285.45 219.29 284.12 218.36L279.46 214.5C279.06 214.63 278.8 214.77 278.67 214.9L260.44 238.31C259.91 238.97 259.51 239.5 258.98 240.04C257.39 241.9 255.66 243.76 253.79 245.49C249.54 250.01 245.28 254.4 240.89 258.66C239.3 260.25 237.3 261.32 235.44 262.78C235.04 262.11 234.91 261.98 234.91 261.71L234.91 260.65C236.11 253.74 238.23 247.09 241.29 240.7C241.56 240.17 241.82 239.5 242.22 239.24C244.62 237.91 244.75 235.65 245.02 233.39C245.15 231.13 246.08 228.86 244.22 227C243.15 227.4 242.22 227.8 241.03 228.2C240.23 226.34 239.7 224.87 238.77 222.88C237.7 224.21 236.37 225.27 235.84 226.6C231.85 234.32 228.66 242.43 226.13 250.81C224.27 257.06 224.27 263.31 225.6 269.69C225.86 270.76 226.66 271.82 227.59 272.62C232.25 276.21 237.3 276.61 242.36 273.55ZM227.33 269.69C226.93 269.03 226.66 268.23 226.26 267.43C226.53 267.3 226.8 267.3 227.19 267.17C227.33 267.97 227.59 268.76 227.73 269.56C227.46 269.69 227.33 269.69 227.33 269.69ZM304.73 246.95C307.39 245.09 309.92 242.96 312.71 241.23C317.63 237.91 322.82 234.58 327.88 231.39C329.34 230.46 331.07 229.93 332.8 229.13C333.2 229.93 333.33 230.33 333.59 230.73C333.99 231.13 334.53 231.39 334.92 231.79C335.59 231.39 336.25 231.13 336.79 230.86C338.52 233.39 338.78 233.52 341.71 232.19C343.3 228.6 342.51 225.67 339.85 223.01C338.78 222.88 337.58 222.61 336.39 222.48C336.52 221.55 336.79 220.88 336.92 220.22C337.72 220.49 338.25 220.75 338.78 220.88C337.05 218.89 335.19 217.03 332.4 217.82C330.67 218.22 329.07 219.16 327.48 219.95C325.88 220.75 324.55 221.81 322.95 222.21C319.23 223.14 315.64 224.61 312.45 226.74C303.54 232.85 295.69 240.17 288.64 248.28C285.32 252.14 282.39 256.26 279.46 260.52C277.07 264.24 275.61 268.5 275.47 273.15C275.34 275.41 276.14 277.01 278.13 277.81C282.12 279.4 286.25 280.07 290.37 277.94C293.69 276.21 297.02 274.62 300.21 272.62C306.2 268.9 312.18 265.04 318.03 259.85C316.17 260.52 314.97 260.92 313.78 261.45C313.25 262.25 312.58 262.78 311.52 262.38C310.85 262.38 310.05 262.51 309.52 262.65C310.59 260.92 310.85 260.78 312.18 261.18C312.58 261.05 312.98 261.05 313.38 261.05L324.82 252.94C324.15 254.4 323.89 255.2 323.62 255.86L317.37 268.1C316.97 268.9 316.3 269.69 316.44 270.36C317.1 273.02 315.64 275.01 314.97 277.41C315.64 277.94 316.17 278.47 316.7 279C317.5 278.61 318.03 278.34 318.43 278.07L320.56 280.47C321.76 278.07 322.69 276.08 323.62 274.08C324.42 272.49 324.95 270.76 326.68 269.96C326.55 266.64 328.94 264.51 330.8 262.25C329.87 265.04 328.41 267.57 326.68 269.96C325.88 271.56 325.22 273.15 324.55 274.75C324.15 275.95 323.22 277.28 324.42 278.74C324.95 277.81 325.48 277.01 325.88 276.21L337.05 253.74C338.12 251.74 339.18 249.75 339.98 247.62C341.18 244.29 342.37 240.97 339.98 237.64C337.98 236.31 336.65 238.17 334.92 238.57L332.93 234.05C332 234.58 331.07 234.85 330.27 235.38L323.75 240.57C314.97 247.09 306.33 253.6 297.68 260.12C295.29 261.98 292.76 263.44 289.57 265.17C290.9 262.91 291.57 261.18 292.63 259.85C296.49 255.33 299.81 250.41 304.73 246.95ZM309.12 262.91L308.32 263.84C308.32 263.58 308.19 263.44 308.06 263.31ZM293.3 268.23C292.63 269.3 292.36 269.83 292.1 270.36C291.57 270.23 291.03 269.96 290.24 269.69ZM285.32 272.36C286.11 272.22 286.91 272.09 287.71 271.82C288.11 272.89 287.44 273.15 285.32 272.36Z" />
</svg>